<?xml version="1.0" encoding="UTF-8" standalone="no"?>
<svg
   xmlns:dc="http://purl.org/dc/elements/1.1/"
   xmlns:cc="http://creativecommons.org/ns#"
   xmlns:rdf="http://www.w3.org/1999/02/22-rdf-syntax-ns#"
   xmlns:svg="http://www.w3.org/2000/svg"
   xmlns="http://www.w3.org/2000/svg"
   xmlns:sodipodi="http://sodipodi.sourceforge.net/DTD/sodipodi-0.dtd"
   xmlns:inkscape="http://www.inkscape.org/namespaces/inkscape"
   fill="#000000"
   height="24"
   viewBox="0 0 24 24"
   width="24"
   id="svg2"
   version="1.1"
   inkscape:version="0.48.5 r10040"
   sodipodi:docname="list_move_up_24px.svg"
   inkscape:export-filename="C:\Users\Johnson\AndroidStudioProjects\preserve\drawable\list_move_up_24px.png"
   inkscape:export-xdpi="90"
   inkscape:export-ydpi="90">
  <metadata
     id="metadata12">
    <rdf:RDF>
      <cc:Work
         rdf:about="">
        <dc:format>image/svg+xml</dc:format>
        <dc:type
           rdf:resource="http://purl.org/dc/dcmitype/StillImage" />
        <dc:title></dc:title>
      </cc:Work>
    </rdf:RDF>
  </metadata>
  <defs
     id="defs10" />
  <sodipodi:namedview
     pagecolor="#ffffff"
     bordercolor="#666666"
     borderopacity="1"
     objecttolerance="10"
     gridtolerance="10"
     guidetolerance="10"
     inkscape:pageopacity="0"
     inkscape:pageshadow="2"
     inkscape:window-width="813"
     inkscape:window-height="480"
     id="namedview8"
     showgrid="false"
     inkscape:zoom="9.8333333"
     inkscape:cx="12"
     inkscape:cy="12"
     inkscape:window-x="553"
     inkscape:window-y="395"
     inkscape:window-maximized="0"
     inkscape:current-layer="svg2" />
  <path
     d="m 10,19 -8,0 0,-2 8,0 z m 0,-5.5 -8,0 0,-2 8,0 z M 10,8 2,8 2,6 10,6 z m 12,4.5 C 22,8.92 19.08,6 15.5,6 l -0.5,0 0,-2 -3,3 3,3 0,-2 0.5,0 c 2.48,0 4.5,2.02 4.5,4.5 0,2.48 -2.02,4.5 -4.5,4.5 l -3.5,0 0,2 3.5,0 c 3.58,0 6.5,-2.92 6.5,-6.5 z"
     id="path4"
     inkscape:connector-curvature="0" />
</svg>
